Coordinates
version=1
nRows=21
nColumns=12
inDegrees=yes

Units are S.I. units (second, meters, Newtons, ...)
Angles are in degrees

endheader
time	SC_y	SC_z	SC_x	AC_y	AC_z	AC_x	GH_y	GH_z	GH_yy	EL_x	PS_y
       0.0              -53.35          11.31          50.05          66.36          9.345         -14.27         -48.74          54.14         -49.48          51.11          88.82
   0.03185              -53.35          11.31          50.05          66.35          9.345         -14.26         -48.73          54.15         -49.45          51.12          88.81
   0.06369              -53.35          11.31          50.04          66.35          9.345         -14.26         -48.72          54.15         -49.42          51.14           88.8
   0.09554              -53.35          11.31          50.04          66.34          9.345         -14.26          -48.7          54.15         -49.39          51.15          88.79
    0.1274              -53.35          11.31          50.03          66.34          9.345         -14.26         -48.69          54.15         -49.36          51.17          88.78
    0.1592              -53.35          11.31          50.03          66.33          9.345         -14.25         -48.67          54.15         -49.33          51.18          88.77
    0.1911              -53.35          11.31          50.02          66.33          9.345         -14.25         -48.65          54.15         -49.29           51.2          88.76
    0.2229              -53.35          11.32          50.01          66.32          9.345         -14.25         -48.63          54.15         -49.25          51.22          88.75
    0.2548              -53.35          11.32           50.0          66.32          9.345         -14.25         -48.61          54.15         -49.21          51.24          88.74
    0.2866              -53.35          11.32           50.0          66.31          9.345         -14.24         -48.59          54.15         -49.16          51.26          88.73
    0.3185              -53.35          11.32          49.99           66.3          9.345         -14.24         -48.57          54.15         -49.11          51.29          88.72
    0.3503              -53.35          11.32          49.98           66.3          9.345         -14.24         -48.54          54.15         -49.06          51.31           88.7
    0.3822              -53.35          11.32          49.97          66.29          9.345         -14.23         -48.52          54.15         -49.01          51.34          88.69
     0.414              -53.35          11.32          49.96          66.28          9.345         -14.23         -48.49          54.15         -48.95          51.37          88.67
    0.4459              -53.35          11.32          49.94          66.27          9.345         -14.22         -48.45          54.15         -48.88           51.4          88.65
    0.4777              -53.35          11.32          49.93          66.26          9.345         -14.22         -48.42          54.15         -48.81          51.43          88.63
    0.5096              -53.35          11.33          49.92          66.25          9.345         -14.21         -48.38          54.15         -48.73          51.47          88.61
    0.5414              -53.35          11.33           49.9          66.24          9.345          -14.2         -48.34          54.16         -48.65          51.51          88.59
    0.5733              -53.35          11.33          49.88          66.22          9.345          -14.2          -48.3          54.16         -48.56          51.56          88.57
    0.6051              -53.35          11.33          49.86          66.21          9.345         -14.19         -48.25          54.16         -48.46           51.6          88.54
    0.6369              -53.35          11.33          49.84          66.19          9.345         -14.18          -48.2          54.16         -48.35          51.66          88.51
